<svg width="244" height="58" viewBox="0 0 244 58" fill="none" xmlns="http://www.w3.org/2000/svg">
<path fill-rule="evenodd" clip-rule="evenodd" d="M32.4478 1.43963L48.255 10.2794C51.6874 12.1989 53.8019 15.7463 53.8019 19.5853V37.265C53.8019 41.104 51.6874 44.6514 48.255 46.5709L32.4478 55.4107C29.0154 57.3302 24.7865 57.3302 21.3541 55.4107L5.54688 46.5709C2.11446 44.6514 0 41.104 0 37.265L0 19.5853C0 15.7463 2.11446 12.1989 5.54688 10.2794L21.3541 1.43963C24.7865 -0.479876 29.0154 -0.479876 32.4478 1.43963Z" fill="#A4A4A4"/>
<path fill-rule="evenodd" clip-rule="evenodd" d="M41.5258 26.7271C41.5258 26.9921 41.519 27.2536 41.5056 27.5113H35.0771C35.1034 27.2533 35.1167 26.9916 35.1167 26.7271C35.1167 22.9701 32.8598 20.0521 28.419 20.0521H24.4513V27.5113H18.1931V14.5807H28.3852C36.0293 14.5807 41.5258 19.1766 41.5258 26.7271ZM12.2773 42.1006V30.1644H18.5416V36.5916H22.4734C26.6033 36.5916 29.0561 33.657 29.2017 30.1644H35.61C35.4528 37.5713 30.0053 42.1006 22.5074 42.1006H12.2773Z" fill="white"/>
<path d="M96.7206 27.8126C96.7206 29.5049 96.3832 30.9697 95.7085 32.207C95.053 33.4261 94.1758 34.436 93.0769 35.2366C91.9973 36.0191 90.773 36.6013 89.4042 36.9835C88.0354 37.3474 86.6473 37.5293 85.24 37.5293H77.6055V18.2051H85.0086C86.4545 18.2051 87.8812 18.3689 89.2886 18.6964C90.6959 19.0057 91.9491 19.5334 93.048 20.2795C94.1469 21.0073 95.0337 21.9899 95.7085 23.2272C96.3832 24.4646 96.7206 25.993 96.7206 27.8126ZM91.5731 27.8126C91.5731 26.7209 91.3803 25.8202 90.9947 25.1105C90.6284 24.3827 90.1272 23.8095 89.491 23.391C88.8741 22.9543 88.1607 22.645 87.351 22.463C86.5606 22.281 85.7412 22.19 84.8929 22.19H82.4349V33.4898H84.7773C85.6641 33.4898 86.5124 33.3988 87.3221 33.2169C88.1511 33.0167 88.8741 32.6983 89.491 32.2616C90.1272 31.8249 90.6284 31.2426 90.9947 30.5148C91.3803 29.7869 91.5731 28.8862 91.5731 27.8126Z" fill="#A4A4A4"/>
<path d="M101.808 37.5293V18.2051H115.573V22.1628H106.579V25.7929H115.081V29.5322H106.579V33.5444H116.094V37.5293H101.808Z" fill="#A4A4A4"/>
<path d="M126.068 22.19V26.175H133.992V30.0235H126.068V37.5293H121.181V18.2051H134.657V22.19H126.068Z" fill="#A4A4A4"/>
<path d="M139.65 37.5293V18.2051H144.624V37.5293H139.65Z" fill="#A4A4A4"/>
<path d="M160.612 29.3411V37.5293H155.667V29.3411L147.975 18.2051H153.961L158.328 25.3562L162.694 18.2051H168.478L160.612 29.3411Z" fill="#A4A4A4"/>
<path d="M171.817 37.5293V18.2051H176.791V37.5293H171.817Z" fill="#A4A4A4"/>
<path d="M182.83 37.5293V18.2051H196.596V22.1628H187.602V25.7929H196.104V29.5322H187.602V33.5444H197.116V37.5293H182.83Z" fill="#A4A4A4"/>
<path d="M202.204 37.5293V18.2051H207.178V33.4625H215.101V37.5293H202.204Z" fill="#A4A4A4"/>
<path d="M238.348 27.8126C238.348 29.5049 238.011 30.9697 237.336 32.207C236.68 33.4261 235.803 34.436 234.704 35.2366C233.625 36.0191 232.4 36.6013 231.032 36.9835C229.663 37.3474 228.275 37.5293 226.867 37.5293H219.233V18.2051H226.636C228.082 18.2051 229.508 18.3689 230.916 18.6964C232.323 19.0057 233.576 19.5334 234.675 20.2795C235.774 21.0073 236.661 21.9899 237.336 23.2272C238.011 24.4646 238.348 25.993 238.348 27.8126ZM233.2 27.8126C233.2 26.7209 233.008 25.8202 232.622 25.1105C232.256 24.3827 231.755 23.8095 231.118 23.391C230.501 22.9543 229.788 22.645 228.978 22.463C228.188 22.281 227.369 22.19 226.52 22.19H224.062V33.4898H226.405C227.291 33.4898 228.14 33.3988 228.949 33.2169C229.778 33.0167 230.501 32.6983 231.118 32.2616C231.755 31.8249 232.256 31.2426 232.622 30.5148C233.008 29.7869 233.2 28.8862 233.2 27.8126Z" fill="#A4A4A4"/>
</svg>
