<?xml version="1.0" standalone="no"?>
<!DOCTYPE svg PUBLIC "-//W3C//DTD SVG 20010904//EN"
 "http://www.w3.org/TR/2001/REC-SVG-20010904/DTD/svg10.dtd">
<svg version="1.0" xmlns="http://www.w3.org/2000/svg"
 width="279.000000pt" height="279.000000pt" viewBox="0 0 279.000000 279.000000"
 preserveAspectRatio="xMidYMid meet">
<metadata>
Created by potrace 1.14, written by Peter Selinger 2001-2017
</metadata>
<g transform="translate(0.000000,279.000000) scale(0.100000,-0.100000)"
fill="#000000" stroke="none">
<path d="M0 1395 l0 -1395 1395 0 1395 0 0 1395 0 1395 -1395 0 -1395 0 0
-1395z m1660 769 c166 -30 309 -102 407 -206 80 -86 122 -181 138 -320 l7 -58
-189 0 -190 0 -6 49 c-18 151 -123 217 -362 228 -292 13 -451 -62 -507 -238
-20 -64 -23 -95 -23 -229 0 -173 13 -239 66 -321 36 -57 88 -94 171 -122 55
-18 87 -21 253 -21 150 -1 204 3 255 17 116 31 176 93 188 193 l5 44 -262 0
-261 0 0 125 0 125 430 0 430 0 0 -405 0 -405 -155 0 -155 0 0 165 c0 135 -3
165 -14 165 -8 0 -21 -21 -30 -46 -48 -142 -162 -242 -322 -285 -110 -29 -306
-29 -419 0 -276 72 -454 259 -522 549 -25 106 -24 338 1 437 71 280 281 485
564 551 150 35 333 38 502 8z"/>
</g>
</svg>
