<svg width="52" height="52" fill="none" xmlns="http://www.w3.org/2000/svg"><g clip-path="url(#clip0)" fill="#131218"><path d="M36.341.026c-.11-.123-4.092.049-7.556 3.809-3.465 3.757-2.931 8.067-2.854 8.177.078.11 4.94.283 8.044-4.088C37.08 3.552 36.452.153 36.341.026zm10.77 38.132c-.155-.312-7.555-4.01-6.866-11.121.689-7.114 5.443-9.064 5.518-9.276.075-.211-1.94-2.567-4.075-3.76a12 12 0 00-5.08-1.41c-.351-.01-1.57-.31-4.076.377-1.65.451-5.372 1.914-6.396 1.972-1.027.059-4.082-1.696-7.367-2.161-2.103-.406-4.333.426-5.928 1.066-1.593.637-4.622 2.45-6.741 7.27-2.119 4.817-1.01 12.448-.218 14.82.793 2.37 2.032 6.253 4.138 9.087 1.872 3.198 4.354 5.418 5.391 6.172 1.037.754 3.962 1.255 5.99.218 1.631-1.001 4.576-1.576 5.74-1.534 1.16.042 3.448.5 5.791 1.752 1.856.64 3.61.373 5.369-.342 1.758-.718 4.303-3.441 7.273-8.963 1.128-2.568 1.642-3.956 1.538-4.167z"/><path d="M36.341.026c-.11-.123-4.092.049-7.556 3.809-3.465 3.757-2.931 8.067-2.854 8.177.078.11 4.94.283 8.044-4.088C37.08 3.552 36.452.153 36.341.026zm10.77 38.132c-.155-.312-7.555-4.01-6.866-11.121.689-7.114 5.443-9.064 5.518-9.276.075-.211-1.94-2.567-4.075-3.76a12 12 0 00-5.08-1.41c-.351-.01-1.57-.31-4.076.377-1.65.451-5.372 1.914-6.396 1.972-1.027.059-4.082-1.696-7.367-2.161-2.103-.406-4.333.426-5.928 1.066-1.593.637-4.622 2.45-6.741 7.27-2.119 4.817-1.01 12.448-.218 14.82.793 2.37 2.032 6.253 4.138 9.087 1.872 3.198 4.354 5.418 5.391 6.172 1.037.754 3.962 1.255 5.99.218 1.631-1.001 4.576-1.576 5.74-1.534 1.16.042 3.448.5 5.791 1.752 1.856.64 3.61.373 5.369-.342 1.758-.718 4.303-3.441 7.273-8.963 1.128-2.568 1.642-3.956 1.538-4.167z"/></g><defs><clipPath id="clip0"><path fill="#fff" d="M0 0h52v52H0z"/></clipPath></defs></svg>