<svg width="200" height="29" fill="none" xmlns="http://www.w3.org/2000/svg"><path d="M13.34 29c5.844 0 8.665-2.774 9.592-6.473h.322v6.053h5.602V13.702H13.662v4.665h9.149c-.161 3.572-2.056 4.58-8.262 4.58-5.924 0-8.141-2.185-8.141-8.447 0-6.262 2.297-8.448 8.423-8.448 5.199 0 7.254 1.555 7.254 4.834v.336h6.73v-.336C28.816 4.119 23.456 0 14.993 0 5.722 0 0 5.716 0 14.5 0 23.284 5.078 29 13.34 29zm22.908-.42V18.367h3.99c3.144 0 4.151.714 5.24 2.9l3.707 7.313h7.012l-3.909-7.565c-1.007-1.976-1.934-3.32-4.352-3.993v-.336c5.078-.505 7.617-3.237 7.617-7.818 0-5.38-3.789-8.448-10.439-8.448H30.203v28.16h6.045zm0-22.486h8.826c2.862 0 4.151.967 4.151 3.74 0 2.943-1.29 3.783-4.15 3.783h-8.827V6.094zM62.54 28.58V.42h-6.045v28.16h6.045zm15.376.42c8.423 0 13.783-4.371 13.783-11.516v-.63h-6.73v.63c0 3.699-2.015 5.464-6.932 5.464-5.924 0-8.141-2.186-8.141-8.448 0-6.262 2.217-8.448 8.14-8.448 4.918 0 6.933 1.765 6.933 5.464v.63h6.73v-.63C91.7 4.37 86.3 0 77.916 0c-8.907 0-14.428 5.716-14.428 14.5 0 8.784 5.521 14.5 14.428 14.5zm37.642-.42v-5.674H98.752v-5.674h16.201V11.6h-16.2V6.094h16.805V.42H92.707v28.16h22.851zm7.164 0V15.004l-.242-5.17h.403l3.426 5.296 9.955 13.45h6.448V.42h-6.045v13.576l.282 5.674h-.444l-3.707-5.927L123.125.42h-6.448v28.16h6.045zm27.631 0V17.736h6.811l6.972 10.844h7.254l-9.269-14.29 9.39-13.87h-7.254l-7.174 11.18h-6.73V.42h-6.046v28.16h6.046z" fill="#000"/><path d="M185.33 29c9.149 0 14.67-5.716 14.67-14.5C200 5.716 194.479 0 185.33 0c-8.947 0-14.509 5.716-14.509 14.5 0 8.784 5.562 14.5 14.509 14.5zm0-6.052c-5.924 0-8.101-2.186-8.101-8.448 0-6.262 2.177-8.448 8.101-8.448 5.925 0 8.222 2.186 8.222 8.448 0 6.262-2.297 8.448-8.222 8.448z" fill="#000"/></svg>