<svg width="964" height="1044" fill="none" xmlns="http://www.w3.org/2000/svg"><path fill="#1452F0" d="M0 0h964v1044H0z"/><path d="M181.8 710.6c9.6 18.6 32.2 31.2 59.6 31.2 33.4 0 57.4-18 57.4-43.4 0-20.6-14-34.4-40.2-41l-18.6-4.6c-20-5-28-10.8-28-21.4 0-11.8 12.2-19.8 28.8-19.8 15.4 0 29.4 7.6 35.2 18.2l20.4-11.4c-4.6-8.8-11.8-15.8-21.8-21-10-5.4-21.2-8-33.4-8-32 0-54.2 18-54.2 43.2 0 19.8 13.4 33.2 40 40.2l18.6 4.6c20 5 28.2 11.2 28.2 22.2 0 5.8-3 10.6-9.2 14.4-6.2 3.8-13.8 5.6-22.8 5.6-18.6 0-32.6-8.4-39.2-20.4l-20.8 11.4zm129.389-45c-.6 43 32 77 74.6 76.2 42.2.8 75.4-33.2 74.6-76.2.8-43-32.4-76.8-74.6-76.2-42.6-.6-75.2 33.2-74.6 76.2zm124.2 0c0 29.8-20.2 53-49.6 53-29.6 0-49.8-23.2-49.8-53 0-30 20.2-53.2 49.8-53.2 29.4 0 49.6 23.2 49.6 53.2zm37.574 0c-.6 43 32 77 74.6 76.2 42.2.8 75.4-33.2 74.6-76.2.8-43-32.4-76.8-74.6-76.2-42.6-.6-75.2 33.2-74.6 76.2zm124.2 0c0 29.8-20.2 53-49.6 53-29.6 0-49.8-23.2-49.8-53 0-30 20.2-53.2 49.8-53.2 29.4 0 49.6 23.2 49.6 53.2zm67.373-73.4h-24V739h24.6V633l76.4 106h23.6V592.2h-24.4V698l-76.2-105.8zM404.6 391.6c.4-43-30.4-74-77.4-73.4h-53V465h53c47 .6 77.8-30.4 77.4-73.4zm-25 0c0 31.8-19 51.2-52.4 51.2h-28V340.4h28c33.4 0 52.4 19.2 52.4 51.2zm145.883-73.4h-102.4V465h104.4v-22.2h-79.4v-40.4h69.2v-22h-69.2v-40h77.4v-22.2zm121.52 0h-101.6V465h25v-59.6h68.4v-22.2h-68.4v-42.8h76.6v-22.2zm41.814 0h-25V465h25V318.2z" fill="#fff"/></svg>