<svg width="42" height="46" fill="none" xmlns="http://www.w3.org/2000/svg"><path d="M30.976 30.03c5.326-2.992 9.363-5.272 9.711-5.45 1.113-.605 2.263-2.208 0-3.454-.73-.391-4.664-2.6-9.71-5.45l-6.997 7.23 6.996 7.124z" fill="#FFD900"/><path d="M23.979 22.907L1.703 45.88c.523.071 1.113-.07 1.81-.462 1.46-.819 16.95-9.474 27.462-15.386l-6.996-7.125z" fill="#F43249"/><path d="M23.979 22.907l6.995-7.195S5.078 1.251 3.512.397A2.662 2.662 0 001.668.039l22.31 22.868z" fill="#00EE76"/><path d="M23.981 22.907L1.671.04C.765.254 0 1.072 0 2.747v40.427c0 1.532.592 2.636 1.705 2.742l22.276-23.01z" fill="#00D3FF"/></svg>