<svg width="140" height="20" fill="none" xmlns="http://www.w3.org/2000/svg"><path d="M9.338 20c4.09 0 6.065-1.913 6.714-4.464h.226v4.174h3.921V9.45H9.564v3.217h6.404c-.113 2.463-1.44 3.16-5.784 3.16-4.147 0-5.698-1.508-5.698-5.827s1.608-5.826 5.896-5.826c3.639 0 5.078 1.072 5.078 3.333v.232h4.711v-.232C20.171 2.841 16.42 0 10.495 0 4.006 0 0 3.942 0 10s3.555 10 9.338 10zm16.036-.29v-7.043h2.793c2.2 0 2.905.492 3.667 2l2.595 5.043h4.91l-2.737-5.217c-.706-1.363-1.354-2.29-3.047-2.754v-.232c3.554-.348 5.332-2.232 5.332-5.391 0-3.71-2.652-5.826-7.307-5.826H21.142v19.42h4.232zm0-15.507h6.178c2.003 0 2.906.667 2.906 2.58 0 2.029-.903 2.608-2.906 2.608h-6.178V4.203zM43.778 19.71V.29h-4.231v19.42h4.231zm10.763.29c5.896 0 9.648-3.015 9.648-7.942v-.435h-4.71v.435c0 2.55-1.411 3.768-4.853 3.768-4.147 0-5.699-1.507-5.699-5.826s1.552-5.826 5.699-5.826c3.442 0 4.852 1.217 4.852 3.768v.435h4.711v-.435C64.19 3.014 60.41 0 54.541 0c-6.234 0-10.1 3.942-10.1 10s3.865 10 10.1 10zm26.349-.29v-3.913H69.127v-3.913h11.341V8h-11.34V4.203H80.89V.29H64.895v19.42H80.89zm5.016 0v-9.362l-.17-3.565h.282l2.398 3.652 6.969 9.275h4.513V.29h-4.231v9.362l.197 3.913h-.31l-2.596-4.087L86.188.29h-4.514v19.42h4.232zm19.341 0v-7.478h4.768l4.88 7.478h5.078l-6.489-9.855L120.058.29h-5.078L109.958 8h-4.711V.29h-4.232v19.42h4.232z" fill="#000"/><path d="M129.731 20C136.135 20 140 16.058 140 10s-3.865-10-10.269-10c-6.263 0-10.156 3.942-10.156 10s3.893 10 10.156 10zm0-4.174c-4.147 0-5.67-1.507-5.67-5.826s1.523-5.826 5.67-5.826 5.755 1.507 5.755 5.826-1.608 5.826-5.755 5.826z" fill="#000"/></svg>