<svg width="231" height="34" fill="none" xmlns="http://www.w3.org/2000/svg"><path d="M16.1 33.2c6.723 0 9.97-3.145 11.036-7.337h.37v6.86h6.447V15.858H16.47v5.289h10.527c-.186 4.05-2.365 5.193-9.507 5.193-6.816 0-9.367-2.477-9.367-9.576 0-7.1 2.643-9.577 9.692-9.577 5.982 0 8.347 1.763 8.347 5.479v.381h7.744v-.381c0-7.67-6.167-12.34-15.905-12.34C7.334.325.75 6.805.75 16.762.75 26.72 6.593 33.2 16.1 33.2zm26.358-.476V21.146h4.59c3.618 0 4.777.81 6.03 3.287l4.265 8.29h8.07l-4.499-8.576c-1.16-2.239-2.226-3.763-5.008-4.526v-.381c5.843-.572 8.764-3.669 8.764-8.862 0-6.099-4.359-9.577-12.01-9.577H35.502v31.922h6.956zm0-25.49h10.155c3.293 0 4.777 1.095 4.777 4.24 0 3.335-1.484 4.288-4.777 4.288H42.458V7.233zm30.252 25.49V.8h-6.956v31.923h6.956zm17.692.476c9.692 0 15.859-4.955 15.859-13.055v-.714h-7.744v.714c0 4.193-2.318 6.194-7.976 6.194-6.816 0-9.367-2.477-9.367-9.576 0-7.1 2.55-9.577 9.367-9.577 5.658 0 7.976 2 7.976 6.194v.714h7.744v-.714c0-8.1-6.213-13.055-15.859-13.055-10.248 0-16.601 6.48-16.601 16.437 0 9.958 6.353 16.438 16.601 16.438zm43.312-.476V26.29h-19.337v-6.43h18.641v-6.384h-18.641V7.233h19.337V.801h-26.293v31.922h26.293zm8.243 0v-15.39l-.278-5.86h.464l3.941 6.003 11.454 15.247h7.42V.8h-6.956v15.39l.325 6.432h-.51l-4.267-6.718L142.421.8h-7.42v31.922h6.956zm31.792 0V20.43h7.837l8.023 12.293h8.347l-10.666-16.2L198.095.801h-8.347l-8.254 12.674h-7.745V.8h-6.955v31.922h6.955z" fill="#000"/><path d="M213.995 33.2c10.527 0 16.88-6.48 16.88-16.438 0-9.957-6.353-16.437-16.88-16.437-10.294 0-16.694 6.48-16.694 16.438 0 9.957 6.4 16.437 16.694 16.437zm0-6.86c-6.816 0-9.32-2.479-9.32-9.578 0-7.099 2.504-9.576 9.32-9.576 6.817 0 9.46 2.477 9.46 9.576 0 7.1-2.643 9.577-9.46 9.577z" fill="#000"/></svg>