<svg width="116" height="16" fill="none" xmlns="http://www.w3.org/2000/svg"><path d="M7.737 16c3.39 0 5.026-1.53 5.563-3.571h.187v3.34h3.25v-8.21H7.923v2.574h5.306c-.093 1.971-1.192 2.528-4.792 2.528-3.436 0-4.721-1.206-4.721-4.661 0-3.455 1.332-4.66 4.885-4.66 3.015 0 4.207.857 4.207 2.666v.185h3.904v-.185C16.713 2.272 13.604 0 8.696 0 3.319 0 0 3.154 0 8s2.945 8 7.737 8zm13.287-.232v-5.635h2.314c1.823 0 2.408.395 3.039 1.6l2.15 4.035h4.067l-2.267-4.174c-.584-1.09-1.122-1.832-2.524-2.203v-.185c2.945-.278 4.418-1.786 4.418-4.313 0-2.968-2.198-4.661-6.055-4.661h-8.648v15.536h3.506zm0-12.406h5.119c1.66 0 2.408.534 2.408 2.064 0 1.623-.748 2.087-2.408 2.087h-5.12v-4.15zm15.249 12.406V.232h-3.506v15.536h3.506zm8.918.232c4.886 0 7.995-2.412 7.995-6.354V9.3h-3.904v.347c0 2.041-1.169 3.015-4.02 3.015-3.437 0-4.722-1.206-4.722-4.661 0-3.455 1.285-4.66 4.721-4.66 2.852 0 4.02.973 4.02 3.014V6.7h3.905v-.347C53.186 2.412 50.053 0 45.19 0c-5.166 0-8.368 3.154-8.368 8s3.202 8 8.368 8zm21.833-.232v-3.13h-9.748v-3.13h9.397V6.4h-9.397V3.362h9.748V.232H53.77v15.536h13.254zm4.155 0v-7.49l-.14-2.852h.233l1.987 2.922 5.774 7.42h3.74V.232h-3.506v7.49l.163 3.13h-.257l-2.15-3.27-5.61-7.35h-3.74v15.536h3.506zm16.025 0V9.786h3.95l4.045 5.982h4.207L94.03 7.884 99.476.232H95.27L91.109 6.4h-3.904V.232h-3.507v15.536h3.507z" fill="#000"/><path d="M107.491 16c5.307 0 8.509-3.154 8.509-8s-3.202-8-8.509-8c-5.189 0-8.415 3.154-8.415 8s3.226 8 8.415 8zm0-3.34c-3.436 0-4.698-1.205-4.698-4.66s1.262-4.66 4.698-4.66c3.437 0 4.769 1.205 4.769 4.66s-1.332 4.66-4.769 4.66z" fill="#000"/></svg>