<svg width="228" height="34" fill="none" xmlns="http://www.w3.org/2000/svg"><path d="M15.207 34c6.662 0 9.878-3.252 10.935-7.588h.368v7.095h6.386V16.064H15.575v5.47h10.43c-.184 4.188-2.344 5.37-9.42 5.37-6.753 0-9.28-2.562-9.28-9.904 0-7.342 2.619-9.904 9.602-9.904 5.927 0 8.27 1.823 8.27 5.666v.394h7.673v-.394C32.85 4.83 26.74 0 17.091 0 6.524 0 0 6.701 0 17s5.789 17 15.207 17zm26.116-.493V21.533h4.548c3.584 0 4.732.838 5.973 3.4l4.227 8.574h7.994l-4.456-8.87c-1.15-2.315-2.206-3.892-4.962-4.68v-.395c5.788-.591 8.683-3.794 8.683-9.165 0-6.307-4.319-9.904-11.9-9.904H34.431v33.014h6.892zm0-26.362h10.062c3.262 0 4.732 1.133 4.732 4.385 0 3.45-1.47 4.435-4.732 4.435H41.323v-8.82zm29.973 26.362V.493h-6.892v33.014h6.892zM88.824 34c9.603 0 15.713-5.125 15.713-13.501v-.74h-7.672v.74c0 4.336-2.298 6.405-7.903 6.405-6.754 0-9.28-2.562-9.28-9.904 0-7.342 2.526-9.904 9.28-9.904 5.605 0 7.903 2.07 7.903 6.405v.74h7.672v-.74C104.537 5.126 98.381 0 88.824 0 78.671 0 72.376 6.701 72.376 17s6.295 17 16.448 17zm42.912-.493v-6.652h-19.159v-6.652h18.47V13.6h-18.47V7.145h19.159V.493h-26.05v33.014h26.05zm8.167 0V17.591l-.275-6.06h.459l3.905 6.208 11.349 15.768h7.351V.493H155.8v15.916l.322 6.652h-.506l-4.227-6.948L140.363.493h-7.351v33.014h6.891zm31.499 0V20.794h7.765l7.948 12.713h8.27l-10.567-16.753L195.523.493h-8.27L179.075 13.6h-7.673V.493h-6.892v33.014h6.892z" fill="#fff"/><path d="M211.276 34C221.706 34 228 27.299 228 17s-6.294-17-16.724-17c-10.199 0-16.54 6.701-16.54 17s6.341 17 16.54 17zm0-7.096c-6.753 0-9.234-2.562-9.234-9.904 0-7.342 2.481-9.904 9.234-9.904 6.754 0 9.373 2.562 9.373 9.904 0 7.342-2.619 9.904-9.373 9.904z" fill="#fff"/></svg>