<svg width="964" height="1044" viewBox="0 0 964 1044" fill="none" xmlns="http://www.w3.org/2000/svg">
<rect width="964" height="1044" fill="#1452F0"/>
<path d="M181.8 710.6C191.4 729.2 214 741.8 241.4 741.8C274.8 741.8 298.8 723.8 298.8 698.4C298.8 677.8 284.8 664 258.6 657.4L240 652.8C220 647.8 212 642 212 631.4C212 619.6 224.2 611.6 240.8 611.6C256.2 611.6 270.2 619.2 276 629.8L296.4 618.4C291.8 609.6 284.6 602.6 274.6 597.4C264.6 592 253.4 589.4 241.2 589.4C209.2 589.4 187 607.4 187 632.6C187 652.4 200.4 665.8 227 672.8L245.6 677.4C265.6 682.4 273.8 688.6 273.8 699.6C273.8 705.4 270.8 710.2 264.6 714C258.4 717.8 250.8 719.6 241.8 719.6C223.2 719.6 209.2 711.2 202.6 699.2L181.8 710.6ZM311.189 665.6C310.589 708.6 343.189 742.6 385.789 741.8C427.989 742.6 461.189 708.6 460.389 665.6C461.189 622.6 427.989 588.8 385.789 589.4C343.189 588.8 310.589 622.6 311.189 665.6ZM435.389 665.6C435.389 695.4 415.189 718.6 385.789 718.6C356.189 718.6 335.989 695.4 335.989 665.6C335.989 635.6 356.189 612.4 385.789 612.4C415.189 612.4 435.389 635.6 435.389 665.6ZM472.963 665.6C472.363 708.6 504.963 742.6 547.563 741.8C589.763 742.6 622.963 708.6 622.163 665.6C622.963 622.6 589.763 588.8 547.563 589.4C504.963 588.8 472.363 622.6 472.963 665.6ZM597.163 665.6C597.163 695.4 576.963 718.6 547.563 718.6C517.963 718.6 497.763 695.4 497.763 665.6C497.763 635.6 517.963 612.4 547.563 612.4C576.963 612.4 597.163 635.6 597.163 665.6ZM664.536 592.2H640.536V739H665.136V633L741.536 739H765.136V592.2H740.736V698L664.536 592.2Z" fill="white"/>
<path d="M404.6 391.6C405 348.6 374.2 317.6 327.2 318.2H274.2V465H327.2C374.2 465.6 405 434.6 404.6 391.6ZM379.6 391.6C379.6 423.4 360.6 442.8 327.2 442.8H299.2V340.4H327.2C360.6 340.4 379.6 359.6 379.6 391.6ZM525.483 318.2H423.083V465H527.483V442.8H448.083V402.4H517.283V380.4H448.083V340.4H525.483V318.2ZM647.003 318.2H545.403V465H570.403V405.4H638.803V383.2H570.403V340.4H647.003V318.2ZM688.817 318.2H663.817V465H688.817V318.2Z" fill="white"/>
</svg>
