<svg width="42" height="46" viewBox="0 0 42 46" fill="none" xmlns="http://www.w3.org/2000/svg">
<path d="M30.9764 30.0301C36.3019 27.0379 40.339 24.7579 40.687 24.5806C41.8001 23.9749 42.9497 22.3716 40.687 21.1262C39.9564 20.7346 36.023 18.5256 30.9764 15.6768L23.9805 22.9067L30.9764 30.0299V30.0301Z" fill="#FFD900"/>
<path d="M23.979 22.9067L1.70312 45.8804C2.22599 45.9512 2.81629 45.8094 3.51224 45.4179C4.97338 44.5994 20.4629 35.9435 30.975 30.0319L23.979 22.9067Z" fill="#F43249"/>
<path d="M23.9785 22.9066L30.9745 15.7123C30.9745 15.7123 5.0785 1.25071 3.5117 0.397022C2.92141 0.0392627 2.25991 -0.0670074 1.66797 0.0392627L23.9785 22.9066Z" fill="#00EE76"/>
<path d="M23.9812 22.9069L1.67065 0.0395508C0.765187 0.25377 0 1.07237 0 2.7465V43.1736C0 44.7059 0.592102 45.8095 1.70527 45.916L23.9812 22.9069Z" fill="#00D3FF"/>
</svg>
