<svg width="140" height="20" viewBox="0 0 140 20" fill="none" xmlns="http://www.w3.org/2000/svg">
<path d="M9.33793 20C13.4286 20 15.4034 18.087 16.0522 15.5362H16.2779V19.7101H20.1993V9.44928H9.56362V12.6667H15.9676C15.8547 15.1304 14.5288 15.8261 10.1843 15.8261C6.03721 15.8261 4.48559 14.3188 4.48559 10C4.48559 5.68116 6.09364 4.17391 10.3818 4.17391C14.021 4.17391 15.4598 5.24638 15.4598 7.50725V7.73913H20.1711V7.50725C20.1711 2.84058 16.419 0 10.4946 0C4.006 0 0 3.94203 0 10C0 16.058 3.55462 20 9.33793 20Z" fill="white"/>
<path d="M25.3736 19.7101V12.6667H28.1665C30.367 12.6667 31.0723 13.1594 31.834 14.6667L34.4294 19.7101H39.3382L36.6017 14.4928C35.8964 13.1304 35.2476 12.2029 33.5549 11.7391V11.5072C37.1095 11.1594 38.8868 9.27536 38.8868 6.11594C38.8868 2.4058 36.235 0.289855 31.5801 0.289855H21.1419V19.7101H25.3736ZM25.3736 4.2029H31.5519C33.5549 4.2029 34.4577 4.86957 34.4577 6.78261C34.4577 8.81159 33.5549 9.3913 31.5519 9.3913H25.3736V4.2029Z" fill="white"/>
<path d="M43.7782 19.7101V0.289855H39.5465V19.7101H43.7782Z" fill="white"/>
<path d="M54.5412 20C60.4374 20 64.1895 16.9855 64.1895 12.058V11.6232H59.4782V12.058C59.4782 14.6087 58.0676 15.8261 54.6258 15.8261C50.4788 15.8261 48.9272 14.3188 48.9272 10C48.9272 5.68116 50.4788 4.17391 54.6258 4.17391C58.0676 4.17391 59.4782 5.3913 59.4782 7.94203V8.37681H64.1895V7.94203C64.1895 3.01449 60.4092 0 54.5412 0C48.3065 0 44.4416 3.94203 44.4416 10C44.4416 16.058 48.3065 20 54.5412 20Z" fill="white"/>
<path d="M80.8905 19.7101V15.7971H69.1264V11.8841H80.4674V8H69.1264V4.2029H80.8905V0.289855H64.8948V19.7101H80.8905Z" fill="white"/>
<path d="M85.9056 19.7101V10.3478L85.7363 6.78261H86.0184L88.4164 10.4348L95.3845 19.7101H99.8983V0.289855H95.6667V9.65217L95.8641 13.5652H95.5538L92.9584 9.47826L86.1877 0.289855H81.6739V19.7101H85.9056Z" fill="white"/>
<path d="M105.247 19.7101V12.2319H110.015L114.895 19.7101H119.973L113.484 9.85507L120.058 0.289855H114.98L109.958 8H105.247V0.289855H101.015V19.7101H105.247Z" fill="white"/>
<path d="M129.731 20C136.135 20 140 16.058 140 10C140 3.94203 136.135 0 129.731 0C123.468 0 119.575 3.94203 119.575 10C119.575 16.058 123.468 20 129.731 20ZM129.731 15.8261C125.584 15.8261 124.061 14.3188 124.061 10C124.061 5.68116 125.584 4.17391 129.731 4.17391C133.878 4.17391 135.486 5.68116 135.486 10C135.486 14.3188 133.878 15.8261 129.731 15.8261Z" fill="white"/>
</svg>
