<svg width="200" height="29" viewBox="0 0 200 29" fill="none" xmlns="http://www.w3.org/2000/svg">
<path d="M13.3399 29C19.1837 29 22.0048 26.2261 22.9317 22.5275H23.2542V28.5797H28.8561V13.7015H13.6623V18.3667H22.8108C22.6496 21.9391 20.7554 22.9478 14.549 22.9478C8.62459 22.9478 6.40799 20.7623 6.40799 14.5C6.40799 8.23768 8.7052 6.05217 14.8311 6.05217C20.03 6.05217 22.0854 7.60725 22.0854 10.8855V11.2217H28.8158V10.8855C28.8158 4.11884 23.4557 0 14.9923 0C5.72286 0 0 5.71594 0 14.5C0 23.2841 5.07803 29 13.3399 29Z" fill="black"/>
<path d="M36.248 28.5797V18.3667H40.2379C43.3814 18.3667 44.389 19.0812 45.4771 21.2667L49.1849 28.5797H56.1974L52.2882 21.0145C51.2806 19.0391 50.3537 17.6942 47.9356 17.0217V16.6855C53.0136 16.1812 55.5526 13.4493 55.5526 8.86812C55.5526 3.48841 51.7642 0.420289 45.1144 0.420289H30.2028V28.5797H36.248ZM36.248 6.0942H45.0741C47.9356 6.0942 49.2252 7.06087 49.2252 9.83478C49.2252 12.7768 47.9356 13.6174 45.0741 13.6174H36.248V6.0942Z" fill="black"/>
<path d="M62.5402 28.5797V0.420289H56.495V28.5797H62.5402Z" fill="black"/>
<path d="M77.916 29C86.3391 29 91.6993 24.629 91.6993 17.4841V16.8536H84.9688V17.4841C84.9688 21.1826 82.9537 22.9478 78.0369 22.9478C72.1126 22.9478 69.896 20.7623 69.896 14.5C69.896 8.23768 72.1126 6.05217 78.0369 6.05217C82.9537 6.05217 84.9688 7.81739 84.9688 11.5159V12.1464H91.6993V11.5159C91.6993 4.37101 86.2988 0 77.916 0C69.0093 0 63.488 5.71594 63.488 14.5C63.488 23.2841 69.0093 29 77.916 29Z" fill="black"/>
<path d="M115.558 28.5797V22.9058H98.7521V17.2319H114.953V11.6H98.7521V6.0942H115.558V0.420289H92.7068V28.5797H115.558Z" fill="black"/>
<path d="M122.722 28.5797V15.0043L122.48 9.83478H122.883L126.309 15.1304L136.264 28.5797H142.712V0.420289H136.667V13.9957L136.949 19.6696H136.505L132.798 13.7435L123.125 0.420289H116.677V28.5797H122.722Z" fill="black"/>
<path d="M150.353 28.5797V17.7362H157.164L164.136 28.5797H171.39L162.121 14.2899L171.511 0.420289H164.257L157.083 11.6H150.353V0.420289H144.307V28.5797H150.353Z" fill="black"/>
<path d="M185.33 29C194.479 29 200 23.2841 200 14.5C200 5.71594 194.479 0 185.33 0C176.383 0 170.821 5.71594 170.821 14.5C170.821 23.2841 176.383 29 185.33 29ZM185.33 22.9478C179.406 22.9478 177.229 20.7623 177.229 14.5C177.229 8.23768 179.406 6.05217 185.33 6.05217C191.255 6.05217 193.552 8.23768 193.552 14.5C193.552 20.7623 191.255 22.9478 185.33 22.9478Z" fill="black"/>
</svg>
