<svg width="116" height="16" viewBox="0 0 116 16" fill="none" xmlns="http://www.w3.org/2000/svg">
<path d="M7.73714 16C11.1265 16 12.7628 14.4696 13.3004 12.429H13.4874V15.7681H16.7365V7.55942H7.92415V10.1333H13.2303C13.1368 12.1043 12.0382 12.6609 8.4384 12.6609C5.00226 12.6609 3.71663 11.4551 3.71663 8C3.71663 4.54493 5.04901 3.33913 8.60202 3.33913C11.6174 3.33913 12.8095 4.1971 12.8095 6.0058V6.1913H16.7132V6.0058C16.7132 2.27246 13.6043 0 8.69552 0C3.31926 0 0 3.15362 0 8C0 12.8464 2.94526 16 7.73714 16Z" fill="black"/>
<path d="M21.0239 15.7681V10.1333H23.338C25.1612 10.1333 25.7456 10.5275 26.3767 11.7333L28.5273 15.7681H32.5945L30.3271 11.5942C29.7428 10.5043 29.2051 9.76232 27.8026 9.3913V9.2058C30.7479 8.92754 32.2205 7.42029 32.2205 4.89275C32.2205 1.92464 30.0233 0.231884 26.1664 0.231884H17.5176V15.7681H21.0239ZM21.0239 3.36232H26.143C27.8026 3.36232 28.5506 3.89565 28.5506 5.42609C28.5506 7.04928 27.8026 7.51304 26.143 7.51304H21.0239V3.36232Z" fill="black"/>
<path d="M36.2733 15.7681V0.231884H32.7671V15.7681H36.2733Z" fill="black"/>
<path d="M45.1913 16C50.0767 16 53.1856 13.5884 53.1856 9.64638V9.29855H49.2819V9.64638C49.2819 11.687 48.1132 12.6609 45.2614 12.6609C41.8253 12.6609 40.5397 11.4551 40.5397 8C40.5397 4.54493 41.8253 3.33913 45.2614 3.33913C48.1132 3.33913 49.2819 4.31304 49.2819 6.35362V6.70145H53.1856V6.35362C53.1856 2.41159 50.0533 0 45.1913 0C40.0254 0 36.823 3.15362 36.823 8C36.823 12.8464 40.0254 16 45.1913 16Z" fill="black"/>
<path d="M67.0236 15.7681V12.6377H57.2762V9.50725H66.673V6.4H57.2762V3.36232H67.0236V0.231884H53.7699V15.7681H67.0236Z" fill="black"/>
<path d="M71.1789 15.7681V8.27826L71.0386 5.42609H71.2724L73.2593 8.34783L79.0329 15.7681H82.7729V0.231884H79.2667V7.72174L79.4303 10.8522H79.1732L77.0227 7.58261L71.4126 0.231884H67.6726V15.7681H71.1789Z" fill="black"/>
<path d="M87.2045 15.7681V9.78551H91.1549L95.1988 15.7681H99.4063L94.03 7.88406L99.4764 0.231884H95.2689L91.1081 6.4H87.2045V0.231884H83.6982V15.7681H87.2045Z" fill="black"/>
<path d="M107.491 16C112.798 16 116 12.8464 116 8C116 3.15362 112.798 0 107.491 0C102.302 0 99.0765 3.15362 99.0765 8C99.0765 12.8464 102.302 16 107.491 16ZM107.491 12.6609C104.055 12.6609 102.793 11.4551 102.793 8C102.793 4.54493 104.055 3.33913 107.491 3.33913C110.928 3.33913 112.26 4.54493 112.26 8C112.26 11.4551 110.928 12.6609 107.491 12.6609Z" fill="black"/>
</svg>
