<svg width="231" height="34" viewBox="0 0 231 34" fill="none" xmlns="http://www.w3.org/2000/svg">
<path d="M16.0992 33.2C22.8232 33.2 26.0693 30.0554 27.1358 25.8626H27.5068V32.7235H33.9526V15.8572H16.4702V21.1458H26.9967C26.8112 25.1956 24.6317 26.3391 17.4904 26.3391C10.6737 26.3391 8.12319 23.8615 8.12319 16.7625C8.12319 9.66336 10.7664 7.18582 17.815 7.18582C23.797 7.18582 26.162 8.94868 26.162 12.665V13.0461H33.9062V12.665C33.9062 4.99415 27.7387 0.324951 18.0005 0.324951C7.33487 0.324951 0.75 6.80466 0.75 16.7625C0.75 26.7202 6.59291 33.2 16.0992 33.2Z" fill="black"/>
<path d="M42.4579 32.7235V21.1458H47.0487C50.6658 21.1458 51.8251 21.9557 53.0771 24.4333L57.3434 32.7235H65.4122L60.9141 24.1474C59.7547 21.9081 58.6882 20.3835 55.9058 19.6211V19.24C61.7488 18.6682 64.6702 15.5713 64.6702 10.378C64.6702 4.27948 60.3112 0.8014 52.6598 0.8014H35.502V32.7235H42.4579ZM42.4579 7.23346H52.6134C55.9058 7.23346 57.3898 8.3293 57.3898 11.4739C57.3898 14.809 55.9058 15.7619 52.6134 15.7619H42.4579V7.23346Z" fill="black"/>
<path d="M72.7104 32.7235V0.8014H65.7545V32.7235H72.7104Z" fill="black"/>
<path d="M90.4021 33.2C100.094 33.2 106.261 28.2449 106.261 20.1452V19.4306H98.5173V20.1452C98.5173 24.338 96.1987 26.3391 90.5412 26.3391C83.7245 26.3391 81.174 23.8615 81.174 16.7625C81.174 9.66336 83.7245 7.18582 90.5412 7.18582C96.1987 7.18582 98.5173 9.18691 98.5173 13.3797V14.0943H106.261V13.3797C106.261 5.28002 100.048 0.324951 90.4021 0.324951C80.1538 0.324951 73.8008 6.80466 73.8008 16.7625C73.8008 26.7202 80.1538 33.2 90.4021 33.2Z" fill="black"/>
<path d="M133.714 32.7235V26.2914H114.377V19.8594H133.018V13.4749H114.377V7.23346H133.714V0.8014H107.421V32.7235H133.714Z" fill="black"/>
<path d="M141.957 32.7235V17.3342L141.679 11.4739H142.143L146.084 17.4771L157.538 32.7235H164.958V0.8014H158.002V16.1907L158.327 22.6228H157.817L153.55 15.9048L142.421 0.8014H135.001V32.7235H141.957Z" fill="black"/>
<path d="M173.749 32.7235V20.4311H181.586L189.609 32.7235H197.956L187.29 16.5242L198.095 0.8014H189.748L181.494 13.4749H173.749V0.8014H166.794V32.7235H173.749Z" fill="black"/>
<path d="M213.995 33.2C224.522 33.2 230.875 26.7202 230.875 16.7625C230.875 6.80466 224.522 0.324951 213.995 0.324951C203.701 0.324951 197.301 6.80466 197.301 16.7625C197.301 26.7202 203.701 33.2 213.995 33.2ZM213.995 26.3391C207.179 26.3391 204.675 23.8615 204.675 16.7625C204.675 9.66336 207.179 7.18582 213.995 7.18582C220.812 7.18582 223.455 9.66336 223.455 16.7625C223.455 23.8615 220.812 26.3391 213.995 26.3391Z" fill="black"/>
</svg>
