<svg width="228" height="34" viewBox="0 0 228 34" fill="none" xmlns="http://www.w3.org/2000/svg">
<path d="M15.2075 34C21.8694 34 25.0855 30.7478 26.1422 26.4116H26.5097V33.5072H32.896V16.0638H15.575V21.5333H26.0044C25.8206 25.7217 23.6612 26.9044 16.5858 26.9044C9.83203 26.9044 7.30511 24.342 7.30511 17C7.30511 9.65797 9.92392 7.09565 16.9074 7.09565C22.8342 7.09565 25.1774 8.91884 25.1774 12.7623V13.1565H32.85V12.7623C32.85 4.82899 26.7395 0 17.0912 0C6.52406 0 0 6.70145 0 17C0 27.2986 5.78895 34 15.2075 34Z" fill="white"/>
<path d="M41.3228 33.5072V21.5333H45.8712C49.4548 21.5333 50.6035 22.371 51.8439 24.9333L56.0708 33.5072H64.0651L59.6085 24.6377C58.4599 22.3217 57.4032 20.7449 54.6465 19.9565V19.5623C60.4355 18.971 63.33 15.7681 63.33 10.3971C63.33 4.08986 59.0112 0.492753 51.4305 0.492753H34.4311V33.5072H41.3228ZM41.3228 7.14493H51.3845C54.6465 7.14493 56.1167 8.27826 56.1167 11.5304C56.1167 14.9797 54.6465 15.9652 51.3845 15.9652H41.3228V7.14493Z" fill="white"/>
<path d="M71.2959 33.5072V0.492753H64.4043V33.5072H71.2959Z" fill="white"/>
<path d="M88.8243 34C98.4266 34 104.537 28.8754 104.537 20.4986V19.7594H96.8645V20.4986C96.8645 24.8348 94.5673 26.9044 88.9621 26.9044C82.2083 26.9044 79.6814 24.342 79.6814 17C79.6814 9.65797 82.2083 7.09565 88.9621 7.09565C94.5673 7.09565 96.8645 9.16522 96.8645 13.5015V14.2406H104.537V13.5015C104.537 5.12464 98.3806 0 88.8243 0C78.6706 0 72.3763 6.70145 72.3763 17C72.3763 27.2986 78.6706 34 88.8243 34Z" fill="white"/>
<path d="M131.736 33.5072V26.8551H112.577V20.2029H131.047V13.6H112.577V7.14493H131.736V0.492753H105.686V33.5072H131.736Z" fill="white"/>
<path d="M139.903 33.5072V17.5913L139.628 11.5304H140.087L143.992 17.7391L155.341 33.5072H162.692V0.492753H155.8V16.4087L156.122 23.0609H155.616L151.389 16.113L140.363 0.492753H133.012V33.5072H139.903Z" fill="white"/>
<path d="M171.402 33.5072V20.7942H179.167L187.115 33.5072H195.385L184.818 16.7536L195.523 0.492753H187.253L179.075 13.6H171.402V0.492753H164.51V33.5072H171.402Z" fill="white"/>
<path d="M211.276 34C221.706 34 228 27.2986 228 17C228 6.70145 221.706 0 211.276 0C201.077 0 194.736 6.70145 194.736 17C194.736 27.2986 201.077 34 211.276 34ZM211.276 26.9044C204.523 26.9044 202.042 24.342 202.042 17C202.042 9.65797 204.523 7.09565 211.276 7.09565C218.03 7.09565 220.649 9.65797 220.649 17C220.649 24.342 218.03 26.9044 211.276 26.9044Z" fill="white"/>
</svg>
