<svg width="41" height="41" viewBox="0 0 41 41" fill="none" xmlns="http://www.w3.org/2000/svg">
<path d="M5.53271 30.2687V10.5437H12.9296C14.2374 10.5437 15.4917 11.0632 16.4165 11.988C17.3413 12.9128 17.8608 14.1671 17.8608 15.475C17.8608 16.7828 17.3413 18.0371 16.4165 18.9619C15.4917 19.8867 14.2374 20.4062 12.9296 20.4062C14.2374 20.4062 15.4917 20.9257 16.4165 21.8505C17.3413 22.7753 17.8608 24.0296 17.8608 25.3375C17.8608 26.6453 17.3413 27.8996 16.4165 28.8244C15.4917 29.7492 14.2374 30.2687 12.9296 30.2687H5.53271Z" stroke="#1D1A23" stroke-width="1.64375" stroke-linecap="round" stroke-linejoin="round"/>
<path d="M5.53271 20.4061H12.9296" stroke="#1D1A23" stroke-width="1.64375" stroke-linecap="round" stroke-linejoin="round"/>
<path d="M23.6138 22.05H35.12C35.12 20.5242 34.5139 19.0608 33.435 17.9819C32.356 16.903 30.8927 16.2969 29.3669 16.2969C27.8411 16.2969 26.3777 16.903 25.2988 17.9819C24.2199 19.0608 23.6138 20.5242 23.6138 22.05V25.3375C23.7833 26.5681 24.3466 27.7108 25.2195 28.5947C26.0924 29.4786 27.2279 30.0562 28.4563 30.2412C29.6847 30.4262 30.94 30.2087 32.0344 29.621C33.1289 29.0334 34.0038 28.1073 34.5283 26.9812" stroke="#1D1A23" stroke-width="1.64375" stroke-linecap="round" stroke-linejoin="round"/>
<path d="M26.9014 10.5437H31.8326" stroke="#1D1A23" stroke-width="1.64375" stroke-linecap="round" stroke-linejoin="round"/>
</svg>
