<svg width="40" height="41" viewBox="0 0 40 41" fill="none" xmlns="http://www.w3.org/2000/svg">
<path d="M29.7884 7.2561H10.0634C8.24774 7.2561 6.77588 8.72797 6.77588 10.5436V30.2686C6.77588 32.0842 8.24774 33.5561 10.0634 33.5561H29.7884C31.604 33.5561 33.0759 32.0842 33.0759 30.2686V10.5436C33.0759 8.72797 31.604 7.2561 29.7884 7.2561Z" stroke="#1D1A23" stroke-width="1.64375" stroke-linecap="round" stroke-linejoin="round"/>
<path d="M13.3511 18.7625V26.9812" stroke="#1D1A23" stroke-width="1.64375" stroke-linecap="round" stroke-linejoin="round"/>
<path d="M13.3511 13.8311V13.8491" stroke="#1D1A23" stroke-width="1.64375" stroke-linecap="round" stroke-linejoin="round"/>
<path d="M19.9258 26.9812V18.7625" stroke="#1D1A23" stroke-width="1.64375" stroke-linecap="round" stroke-linejoin="round"/>
<path d="M26.5008 26.9812V22.0499C26.5008 21.178 26.1544 20.3419 25.5379 19.7253C24.9214 19.1088 24.0852 18.7625 23.2133 18.7625C22.3414 18.7625 21.5052 19.1088 20.8887 19.7253C20.2721 20.3419 19.9258 21.178 19.9258 22.0499" stroke="#1D1A23" stroke-width="1.64375" stroke-linecap="round" stroke-linejoin="round"/>
</svg>
