<svg width="122" height="46" viewBox="0 0 122 46" fill="none" xmlns="http://www.w3.org/2000/svg">
<path fill-rule="evenodd" clip-rule="evenodd" d="M80.6213 3.58741C80.6213 1.93301 81.5189 0.708334 83.1948 0.46483L86.1329 0.0351179C87.928 -0.208386 89.1902 0.830086 89.1902 2.66352V42.4334C89.1902 44.0878 88.1103 45.1835 86.4975 45.1835H83.321C81.7012 45.1835 80.6283 44.0806 80.6283 42.4334V3.58741H80.6213ZM95.7675 25.8607C95.7675 16.8081 101.819 12.4036 108.165 12.4036C110.079 12.4036 112.176 13.1412 113.438 13.8717V3.16474C113.438 1.51035 114.518 0.414582 116.131 0.414582H119.307C120.927 0.414582 122 1.51751 122 3.16474V32.5929C122 41.0367 115.949 45.9927 108.88 45.9927C101.812 45.9927 95.7605 41.0367 95.7605 32.5929V25.8607H95.7675ZM108.88 38.5873C111.517 38.5873 113.431 36.5104 113.431 32.2849V20.9047C111.994 20.2959 110.437 19.8018 108.936 19.8018C106.3 19.8018 104.266 21.5135 104.266 26.1615V32.2777C104.273 36.5032 106.251 38.5873 108.88 38.5873ZM48.8281 25.6173C48.9614 17.0087 54.5992 12.4037 61.5833 12.4037C68.6515 12.4037 74.4015 17.4814 74.3875 24.7722V28.9906C74.3875 30.6378 73.3146 31.7407 71.6948 31.7407H57.3199V32.1704C57.3199 36.5177 59.1781 38.5946 62.8314 38.5946C65.5311 38.5946 67.6839 38.1076 68.8829 37.7997C70.4396 37.3699 71.6387 38.0432 71.9963 39.5758L72.4171 41.3519C72.8378 43.1281 72.0594 44.4745 70.5588 44.9615C68.8829 45.4485 66.7232 46 62.8314 46C54.4449 46 48.8141 41.1657 48.8141 32.1704V31.7407H41.227L41.0446 34.1901C40.5047 41.6527 35.7715 46 29.0048 46C25.4145 46 22.778 44.4101 21.1581 41.7817C19.5383 44.4101 16.9088 46 13.3115 46C6.60089 46 1.86768 41.4737 1.32775 34.1901L0.00946045 15.956C-0.109746 14.3087 0.907017 13.2058 2.52683 13.2058H5.77346C7.39327 13.2058 8.41003 14.3016 8.52924 15.956L9.78442 33.5742C9.96673 36.4461 11.1658 38.4657 13.5009 38.4657C15.7798 38.4657 17.035 36.2599 17.035 33.5097V18.0329C17.035 16.3857 18.1079 15.2827 19.7277 15.2827H22.6658C24.2786 15.2827 25.3584 16.3785 25.3584 18.0329V33.5025C25.3584 36.2527 26.6136 38.4585 28.8926 38.4585C31.2276 38.4585 32.4267 36.4461 32.6651 33.567L33.9834 15.7053C34.1026 14.0581 35.1194 13.1986 36.7392 13.1986H39.9718C41.5846 13.1986 42.5452 14.2944 42.426 15.9488L41.6968 25.6173H48.8281ZM57.3269 25.6173H65.8326V24.7579C65.8326 22.0077 64.2759 19.8019 61.5833 19.8019C59.0659 19.8019 57.3269 21.9433 57.3269 24.7579V25.6173Z" fill="#A4A4A4"/>
</svg>
